<?xml version="1.0" encoding="utf-8"?>
<!-- Generator: Adobe Illustrator 27.5.0, SVG Export Plug-In . SVG Version: 6.00 Build 0)  -->
<svg version="1.1" id="레이어_1" xmlns="http://www.w3.org/2000/svg" xmlns:xlink="http://www.w3.org/1999/xlink" x="0px"
	 y="0px" viewBox="0 0 165.9 38.3" style="enable-background:new 0 0 165.9 38.3;" xml:space="preserve">
<style type="text/css">
	.st0{fill:#005850;}
</style>
<g>
	<path class="st0" d="M15.1,0c0,0-1.7,1.7-2.7,4.1c2.3,1.4,3.6,3,3.8,4.6c0.1,1-0.1,1.8-0.5,2.5h-0.8c0.4-0.6,0.7-1.4,0.6-2.4
		c-0.2-1.4-1.3-2.8-3.3-4.1c-0.5-0.3-1-0.6-1.6-0.9c-0.3,1-1.1,3.9,0.1,5.9c0.3,0.6,0.8,1.1,1.5,1.4H0v3.2h7.6
		c-0.1,0-0.2,0.1-0.2,0.1l-0.3,0.1c-2,1.2-3.5,2.9-4.7,4.9c-1,1.8-1.5,3.8-1.5,5.9c0,2,0.5,4,1.4,5.8c0,0,0,0.1,0,0.1
		c0.6,1.1,1.3,2.1,2.1,2.9c0.7,0.7,1.5,1.4,2.4,2c0.1,0.1,0.3,0.2,0.4,0.2c1,0.6,2.2,1.1,3.3,1.4c1.1,0.3,2.2,0.4,3.4,0.4
		c2.6,0,5-0.7,7.1-2.1c1.1-0.7,2.1-1.5,2.9-2.5c0.7-0.7,1.2-1.5,1.7-2.4c0.1-0.2,0.2-0.3,0.2-0.5c0.8-1.7,1.2-3.5,1.2-5.4
		c0-4.7-2-8.3-6.1-10.9c-0.1,0-0.2-0.1-0.3-0.1c-0.1,0-0.1-0.1-0.2-0.1h7.7v-3.2H17C18.7,9.6,20.3,6.2,15.1,0z M14.5,27.9
		c-2,2.1-4.8,3.5-7.8,3.9C6,31,5.5,30.1,5.1,29.1c2.6-0.7,5-2,6.8-3.9C12.7,26.2,13.6,27.1,14.5,27.9z M8.8,17.5
		c0.1,0,0.1-0.1,0.2-0.1c1.3-0.7,2.5-1.2,3.8-1.4c0,0,0,0,0.1,0c-0.3,4.9-3.8,8.9-8.4,10.1c0-0.2,0-0.4,0-0.5c0-3,1.4-5.7,3.5-7.4
		c0.2-0.1,0.3-0.3,0.5-0.4C8.6,17.6,8.7,17.6,8.8,17.5z M14.1,35.2c-1.5,0-3-0.4-4.3-1c2.8-0.9,5.3-2.5,7.3-4.6
		c1.5,0.8,3,1.4,4.7,1.8C20,33.7,17.2,35.2,14.1,35.2z M23.7,25.6c0,1.1-0.2,2.1-0.5,3c-1.5-0.2-2.9-0.7-4.3-1.4
		c1.4-2.3,2.4-4.9,2.6-7.7C22.9,21.2,23.7,23.3,23.7,25.6z M18.6,17c0,0.3,0,0.6,0,1c0,2.8-0.8,5.3-2.2,7.5c-1-0.8-1.8-1.8-2.6-2.8
		c1.2-1.9,1.9-4.2,2-6.5C16.8,16.3,17.8,16.6,18.6,17z"/>
	<g>
		<path class="st0" d="M140,11.2h-1.1h0h-2.3l0,0c-0.1,0-0.2,0.1-0.2,0.2l-0.6,1.5c-0.1,0.3-0.2,0.6-0.4,1l-0.9,2.4l0,0
			c-2.1,5.7-5.5,14.7-5.5,14.8c0,0.2,0.1,0.3,0.3,0.3h3c0.1,0,0.2-0.1,0.3-0.3l2-5.5h7.6l2,5.5c0.1,0.2,0.2,0.3,0.3,0.3h3
			c0.2,0,0.3-0.1,0.3-0.3c0-0.1-7.3-19.7-7.3-19.7C140.2,11.4,140.1,11.2,140,11.2z M135.6,22.8l1.9-5.3l0,0l0.8-2.1l0.3,0.7
			l2.4,6.7H135.6z"/>
		<path class="st0" d="M121.1,19.6c-2.1-0.6-3.9-1.5-3.9-3c0-1.2,0.5-2.8,3.7-2.8c3.1,0,5.2,0.9,5.4,0.9c0.2,0,0.3-0.1,0.3-0.3
			c0-0.1,0-2.3,0-2.3c0-0.1,0-0.2-0.3-0.4c0,0-1.8-0.9-5.4-0.9c-5.4,0-7.1,2.4-7.1,5.6c0,3.9,3.7,5.6,6.8,6.5c2.1,0.6,3.9,1.5,3.9,3
			c0,1.2-0.5,2.8-3.7,2.8c-2.9,0-6.4-1.2-6.5-1.2c-0.1,0-0.3,0.1-0.3,0.3c0,0.1,0,2.2,0,2.2c0,0.2,0.1,0.3,0.3,0.3
			c0,0,2.8,1.2,6.5,1.2c5.4,0,7.1-2.3,7.1-5.7C127.9,22.2,124.2,20.6,121.1,19.6z"/>
		<path class="st0" d="M53.8,11.2H51c-0.2,0-0.3,0.1-0.3,0.3v0.3v5v2.8h-8.5v-2.8v-5.3l0,0c0-0.2-0.1-0.3-0.3-0.3h-2.8
			c-0.2,0-0.3,0.1-0.3,0.3v0.3v5v14.4c0,0.2,0.1,0.3,0.3,0.3h2.8c0.2,0,0.3-0.1,0.3-0.3v-8.7h8.5v8.7c0,0.2,0.1,0.3,0.3,0.3h2.8
			c0.2,0,0.3-0.1,0.3-0.3V16.8v-5.3l0,0C54.1,11.4,53.9,11.2,53.8,11.2z"/>
		<path class="st0" d="M93.5,11.5c0-0.2-0.1-0.3-0.3-0.3c0,0,0,0,0,0h-2.8c-0.2,0-0.3,0.1-0.3,0.3v5.3l0,0v10.3l-7.3-15.7
			c-0.1-0.2-0.2-0.3-0.3-0.3h-1.7h-0.6H78c-0.2,0-0.3,0.1-0.3,0.3v0.3v5v14.4c0,0.2,0.1,0.3,0.3,0.3h2.8c0.2,0,0.3-0.1,0.3-0.3V16.8
			v-1.3l7.3,15.7c0.1,0.2,0.1,0.3,0.3,0.3h4.5c0.2,0,0.3-0.1,0.3-0.3V16.8l0,0V11.5L93.5,11.5L93.5,11.5z"/>
		<path class="st0" d="M104.6,19.6c-2.1-0.6-3.9-1.5-3.9-3c0-1.2,0.5-2.8,3.7-2.8c3.1,0,5.2,0.9,5.4,0.9c0.2,0,0.3-0.1,0.3-0.3
			c0-0.1,0-2.3,0-2.3c0-0.1,0-0.2-0.3-0.4c0,0-1.8-0.9-5.4-0.9c-5.4,0-7.1,2.4-7.1,5.6c0,3.9,3.7,5.6,6.8,6.5c2.1,0.6,3.9,1.5,3.9,3
			c0,1.2-0.5,2.8-3.7,2.8c-2.9,0-6.4-1.2-6.5-1.2c-0.1,0-0.3,0.1-0.3,0.3c0,0.1,0,2.2,0,2.2c0,0.2,0.1,0.3,0.3,0.3
			c0,0,2.8,1.2,6.5,1.2c5.4,0,7.1-2.3,7.1-5.7C111.4,22.2,107.7,20.6,104.6,19.6z"/>
		<path class="st0" d="M156.2,21.1c0,0,7.1-7.5,9.1-9.4c0.1-0.1,0.1-0.1,0.1-0.2c0-0.1-0.1-0.3-0.3-0.3h-3.5c-0.1,0-0.4,0.1-0.6,0.3
			l-7.5,8.1v-8c0-0.2-0.1-0.3-0.3-0.3l0,0l0,0h-2.8c-0.2,0-0.3,0.1-0.3,0.3v5.3l0,0v14.4c0,0.2,0.1,0.3,0.3,0.3h2.8
			c0.2,0,0.3-0.1,0.3-0.3v-8.6l7.9,8.6c0.1,0.1,0.3,0.3,0.6,0.3h3.7c0.2,0,0.3-0.1,0.3-0.3C165.9,30.9,156.2,21.1,156.2,21.1z"/>
		<path class="st0" d="M67.5,11.2h-1.1h0h-2.3l0,0c-0.1,0-0.2,0.1-0.2,0.2L63.3,13c-0.1,0.3-0.2,0.6-0.4,1l-0.9,2.4l0,0
			c-2.1,5.7-5.5,14.7-5.5,14.8c0,0.2,0.1,0.3,0.3,0.3h3c0.1,0,0.2-0.1,0.3-0.3l2-5.5h7.6l2,5.5c0.1,0.2,0.2,0.3,0.3,0.3h3
			c0.2,0,0.3-0.1,0.3-0.3c0-0.1-7.3-19.7-7.3-19.7C67.8,11.4,67.7,11.2,67.5,11.2z M63.1,22.8l1.9-5.3l0,0l0.8-2.1l0.3,0.7l2.4,6.7
			H63.1z"/>
	</g>
</g>
</svg>
