<?xml version="1.0" encoding="utf-8"?>
<!-- Generator: Adobe Illustrator 27.4.1, SVG Export Plug-In . SVG Version: 6.00 Build 0)  -->
<svg version="1.1" id="레이어_1" xmlns="http://www.w3.org/2000/svg" xmlns:xlink="http://www.w3.org/1999/xlink" x="0px"
	 y="0px" viewBox="0 0 235.2 60" enable-background="new 0 0 235.2 60" xml:space="preserve">
<g>
	<path fill="#005850" d="M49.7,10.83c0,0-1.66,1.74-2.65,4.05c2.3,1.42,3.57,2.97,3.78,4.63c0.13,0.99-0.14,1.83-0.49,2.48h-0.81
		c0.38-0.58,0.74-1.42,0.61-2.4c-0.19-1.42-1.3-2.77-3.34-4.05c-0.48-0.3-1.01-0.6-1.59-0.89c-0.32,1-1.08,3.9,0.12,5.95
		c0.34,0.59,0.83,1.06,1.45,1.42H34.64v3.23h7.61c-0.09,0.03-0.17,0.07-0.23,0.1l-0.28,0.15c-1.99,1.2-3.55,2.85-4.67,4.94
		c-1,1.85-1.49,3.82-1.49,5.92c0,2.03,0.47,3.95,1.4,5.78c0.02,0.03,0.03,0.06,0.04,0.09c0.57,1.1,1.28,2.08,2.12,2.94
		c0.71,0.73,1.51,1.38,2.4,1.95c0.13,0.09,0.27,0.16,0.41,0.24c1.05,0.63,2.15,1.09,3.29,1.39c1.1,0.29,2.25,0.43,3.44,0.42
		c2.58,0,4.96-0.69,7.14-2.06c1.1-0.7,2.06-1.52,2.86-2.45c0.65-0.74,1.21-1.55,1.66-2.44c0.09-0.17,0.16-0.33,0.24-0.5
		c0.77-1.67,1.16-3.46,1.16-5.36c0-4.7-2.04-8.32-6.11-10.85c-0.09-0.03-0.19-0.09-0.28-0.15c-0.06-0.03-0.14-0.07-0.23-0.1h7.65
		v-3.23H51.6C53.35,20.42,54.92,17.06,49.7,10.83z M49.17,38.7c-2.05,2.06-4.75,3.48-7.81,3.94c-0.68-0.8-1.23-1.72-1.62-2.72
		c2.64-0.65,4.99-2.04,6.82-3.94C47.33,36.99,48.21,37.9,49.17,38.7z M43.4,28.34c0.06-0.04,0.13-0.08,0.19-0.12
		c1.27-0.73,2.54-1.19,3.79-1.38c0.03,0,0.05-0.01,0.08-0.01c-0.31,4.89-3.78,8.93-8.39,10.1c-0.01-0.18-0.02-0.36-0.02-0.54
		c0-3,1.37-5.67,3.51-7.44c0.17-0.14,0.34-0.28,0.53-0.41C43.2,28.48,43.3,28.41,43.4,28.34z M48.71,46.06c-1.53,0-2.98-0.36-4.26-1
		c2.83-0.9,5.32-2.5,7.27-4.6c1.45,0.82,3.02,1.42,4.66,1.78C54.62,44.56,51.85,46.06,48.71,46.06z M58.37,36.4
		c0,1.06-0.18,2.07-0.49,3.03c-1.5-0.24-2.94-0.71-4.26-1.4c1.44-2.26,2.37-4.87,2.62-7.68C57.57,32,58.37,34.11,58.37,36.4z
		 M53.22,27.86c0.02,0.32,0.03,0.63,0.03,0.95c0,2.76-0.8,5.34-2.17,7.51c-0.98-0.82-1.85-1.78-2.58-2.85
		c1.17-1.93,1.89-4.16,2.03-6.55C51.48,27.1,52.39,27.42,53.22,27.86z"/>
	<g>
		<path fill="#005850" d="M174.62,22.06h-1.1h-0.02h-2.26l0,0c-0.11,0-0.21,0.07-0.25,0.19l-0.58,1.55
			c-0.11,0.29-0.24,0.64-0.38,1.02l-0.9,2.42l0,0c-2.14,5.71-5.5,14.72-5.5,14.8c0,0.17,0.11,0.29,0.28,0.29h2.96
			c0.11,0,0.23-0.12,0.28-0.29l1.98-5.5h7.56l2.03,5.5c0.06,0.17,0.17,0.29,0.28,0.29h2.96c0.17,0,0.28-0.12,0.28-0.29
			c0-0.12-7.34-19.69-7.34-19.69C174.84,22.21,174.76,22.06,174.62,22.06z M170.19,33.65l1.94-5.28l0,0l0.79-2.11l0.28,0.73
			l2.43,6.66H170.19z"/>
		<path fill="#005850" d="M155.78,30.46c-2.06-0.64-3.95-1.45-3.95-3.04c0-1.19,0.51-2.75,3.67-2.75c3.13,0,5.22,0.87,5.36,0.87
			c0.17,0,0.28-0.12,0.28-0.29c0-0.12,0-2.26,0-2.26c0-0.12-0.03-0.25-0.28-0.35c0,0-1.83-0.87-5.36-0.87
			c-5.45,0-7.05,2.35-7.05,5.65c0,3.91,3.7,5.56,6.77,6.52c2.06,0.64,3.95,1.45,3.95,3.04c0,1.19-0.51,2.75-3.67,2.75
			c-2.93,0-6.35-1.16-6.49-1.16c-0.11,0-0.29,0.12-0.29,0.29c0,0.12,0,2.17,0,2.17c0,0.18,0.13,0.28,0.27,0.34
			c0,0,2.78,1.25,6.51,1.25c5.45,0,7.05-2.35,7.05-5.65C162.55,33.07,158.85,31.42,155.78,30.46z"/>
		<path fill="#005850" d="M88.41,22.06h-2.82c-0.17,0-0.28,0.12-0.28,0.29v0.29v5.03v2.78h-8.46v-2.78v-5.32l0,0
			c0-0.17-0.11-0.29-0.28-0.29h-2.82c-0.17,0-0.28,0.12-0.28,0.29v0.29v5.03v14.37c0,0.17,0.11,0.29,0.28,0.29h2.82
			c0.17,0,0.28-0.12,0.28-0.29v-8.69h8.46v8.69c0,0.17,0.11,0.29,0.28,0.29h2.82c0.17,0,0.28-0.12,0.28-0.29V27.67v-5.32l0,0
			C88.69,22.18,88.58,22.06,88.41,22.06z"/>
		<path fill="#005850" d="M128.12,22.35c0-0.17-0.1-0.28-0.26-0.29c-0.01,0-0.01,0-0.02,0h-2.82c-0.17,0-0.28,0.12-0.28,0.29v5.32
			l0,0V38l-7.34-15.66c-0.08-0.17-0.17-0.29-0.28-0.29h-1.69h-0.56h-2.26c-0.17,0-0.28,0.12-0.28,0.29v0.29v5.03v14.37
			c0,0.17,0.11,0.29,0.28,0.29h2.82c0.17,0,0.28-0.12,0.28-0.29V27.67v-1.33l7.34,15.7c0.08,0.17,0.14,0.29,0.28,0.29h4.51
			c0.17,0,0.28-0.12,0.28-0.29V27.67l0,0V22.35L128.12,22.35L128.12,22.35z"/>
		<path fill="#005850" d="M139.26,30.46c-2.06-0.64-3.95-1.45-3.95-3.04c0-1.19,0.51-2.75,3.67-2.75c3.13,0,5.22,0.87,5.36,0.87
			c0.17,0,0.28-0.12,0.28-0.29c0-0.12,0-2.26,0-2.26c0-0.12-0.03-0.25-0.28-0.35c0,0-1.83-0.87-5.36-0.87
			c-5.45,0-7.05,2.35-7.05,5.65c0,3.91,3.7,5.56,6.77,6.52c2.06,0.64,3.95,1.45,3.95,3.04c0,1.19-0.51,2.75-3.67,2.75
			c-2.93,0-6.35-1.16-6.49-1.16c-0.11,0-0.29,0.12-0.29,0.29c0,0.12,0,2.17,0,2.17c0,0.18,0.13,0.28,0.27,0.34
			c0,0,2.78,1.25,6.51,1.25c5.45,0,7.05-2.35,7.05-5.65C146.04,33.07,142.34,31.42,139.26,30.46z"/>
		<path fill="#005850" d="M190.82,31.91c0,0,7.11-7.5,9.09-9.35c0.06-0.06,0.08-0.12,0.08-0.2c0-0.14-0.08-0.29-0.28-0.29h-3.53
			c-0.14,0-0.37,0.12-0.56,0.29l-7.48,8.05v-8.05c0-0.17-0.11-0.29-0.28-0.29l0,0l0,0h-2.82c-0.17,0-0.28,0.12-0.28,0.29v5.32l0,0
			v14.37c0,0.17,0.11,0.29,0.28,0.29h2.82c0.17,0,0.28-0.12,0.28-0.29v-8.6l7.9,8.6c0.11,0.14,0.28,0.29,0.56,0.29h3.67
			c0.17,0,0.28-0.12,0.28-0.29C200.56,41.75,190.82,31.91,190.82,31.91z"/>
		<path fill="#005850" d="M102.18,22.06h-1.1h-0.02H98.8l0,0c-0.11,0-0.21,0.07-0.25,0.19l-0.58,1.55
			c-0.11,0.29-0.24,0.64-0.38,1.02l-0.9,2.42l0,0c-2.14,5.71-5.5,14.72-5.5,14.8c0,0.17,0.11,0.29,0.28,0.29h2.96
			c0.11,0,0.23-0.12,0.28-0.29l1.98-5.5h7.56l2.03,5.5c0.06,0.17,0.17,0.29,0.28,0.29h2.96c0.17,0,0.28-0.12,0.28-0.29
			c0-0.12-7.34-19.69-7.34-19.69C102.41,22.21,102.32,22.06,102.18,22.06z M97.75,33.65l1.94-5.28l0,0l0.79-2.11l0.28,0.73
			l2.43,6.66H97.75z"/>
	</g>
</g>
</svg>
