<?xml version="1.0" encoding="utf-8"?>
<!-- Generator: Adobe Illustrator 27.4.1, SVG Export Plug-In . SVG Version: 6.00 Build 0)  -->
<svg version="1.1" id="레이어_1" xmlns="http://www.w3.org/2000/svg" xmlns:xlink="http://www.w3.org/1999/xlink" x="0px"
	 y="0px" viewBox="0 0 30 30" enable-background="new 0 0 30 30" xml:space="preserve">
<g>
	<path fill="#FFFFFF" d="M15.7,1.43c0,0-1.18,1.23-1.87,2.87c1.62,1,2.53,2.1,2.68,3.28c0.09,0.7-0.1,1.3-0.35,1.76h-0.57
		c0.27-0.41,0.52-1.01,0.43-1.7c-0.13-1-0.92-1.96-2.37-2.87c-0.34-0.21-0.72-0.42-1.13-0.63c-0.23,0.71-0.76,2.76,0.09,4.21
		c0.24,0.42,0.59,0.75,1.03,1.01H5.04v2.29h5.38c-0.07,0.02-0.12,0.05-0.17,0.07l-0.2,0.11c-1.41,0.85-2.51,2.01-3.3,3.5
		C6.05,16.63,5.7,18.02,5.7,19.5c0,1.43,0.33,2.8,0.99,4.09c0.01,0.02,0.02,0.04,0.03,0.06c0.41,0.78,0.91,1.47,1.5,2.08
		c0.5,0.52,1.07,0.98,1.7,1.38c0.1,0.06,0.19,0.12,0.29,0.17c0.74,0.44,1.52,0.77,2.33,0.99c0.78,0.21,1.59,0.31,2.44,0.3
		c1.83,0,3.51-0.49,5.05-1.46c0.78-0.5,1.45-1.08,2.03-1.73c0.46-0.53,0.85-1.1,1.18-1.73c0.06-0.12,0.11-0.24,0.17-0.36
		c0.55-1.19,0.82-2.45,0.82-3.8c0-3.33-1.44-5.89-4.33-7.68c-0.07-0.02-0.13-0.06-0.2-0.11c-0.04-0.02-0.1-0.05-0.17-0.07h5.42V9.35
		h-7.92C18.28,8.22,19.39,5.84,15.7,1.43z M15.32,21.16c-1.45,1.46-3.36,2.46-5.52,2.79c-0.48-0.57-0.87-1.22-1.15-1.92
		c1.87-0.46,3.53-1.45,4.83-2.79C14.02,19.95,14.64,20.59,15.32,21.16z M11.24,13.82c0.04-0.03,0.09-0.05,0.14-0.08
		c0.9-0.52,1.79-0.84,2.68-0.97c0.02,0,0.04-0.01,0.06-0.01c-0.22,3.46-2.68,6.32-5.94,7.15c-0.01-0.13-0.01-0.25-0.01-0.38
		c0-2.12,0.97-4.01,2.49-5.26c0.12-0.1,0.24-0.2,0.37-0.29C11.1,13.93,11.17,13.87,11.24,13.82z M15,26.36
		c-1.09,0-2.11-0.26-3.02-0.71c2-0.63,3.76-1.77,5.15-3.25c1.03,0.58,2.14,1.01,3.3,1.26C19.18,25.3,17.22,26.36,15,26.36z
		 M21.83,19.53c0,0.75-0.12,1.47-0.35,2.14c-1.06-0.17-2.08-0.5-3.02-0.99c1.02-1.6,1.68-3.45,1.85-5.43
		C21.27,16.42,21.83,17.91,21.83,19.53z M18.19,13.49c0.01,0.22,0.02,0.45,0.02,0.67c0,1.95-0.56,3.78-1.54,5.32
		c-0.69-0.58-1.31-1.26-1.83-2.02c0.83-1.37,1.34-2.95,1.44-4.64C16.96,12.95,17.6,13.18,18.19,13.49z"/>
</g>
</svg>
